<svg width="73" height="58" viewBox="0 0 73 58" fill="none">
<path d="M1.72565 1.52537C0.911197 1.67689 0.373783 2.45996 0.525303 3.27442C0.676822 4.08887 1.4599 4.62628 2.27435 4.47476L1.72565 1.52537ZM43.5 13.0002L44.3602 11.7713L43.5 13.0002ZM59.8522 56.9656C60.3855 57.5996 61.3317 57.6811 61.9656 57.1478L72.2962 48.4571C72.9301 47.9238 73.0117 46.9775 72.4784 46.3436C71.9451 45.7096 70.9988 45.6281 70.3649 46.1614L61.1822 53.8865L53.4571 44.7038C52.9238 44.0699 51.9775 43.9883 51.3436 44.5216C50.7096 45.0549 50.6281 46.0012 51.1614 46.6351L59.8522 56.9656ZM2 3.00007C2.27435 4.47476 2.27386 4.47485 2.27345 4.47493C2.27342 4.47494 2.27309 4.475 2.27303 4.47501C2.27292 4.47503 2.27313 4.47499 2.27366 4.47489C2.27473 4.4747 2.27709 4.47427 2.28074 4.47361C2.28803 4.4723 2.30044 4.4701 2.3179 4.46708C2.35282 4.46104 2.4079 4.45175 2.48244 4.43986C2.63153 4.4161 2.85841 4.38199 3.15748 4.34287C3.75573 4.2646 4.64221 4.16631 5.77231 4.09048C8.03355 3.93873 11.2638 3.87728 15.1078 4.24339C22.7991 4.97594 32.9061 7.4155 42.6398 14.229L44.3602 11.7713C34.0939 4.58493 23.4509 2.02444 15.3922 1.25691C11.3612 0.872983 7.96645 0.936487 5.57144 1.09721C4.37342 1.1776 3.42396 1.28243 2.7683 1.36822C2.44042 1.41111 2.18585 1.44927 2.01023 1.47726C1.92242 1.49126 1.85433 1.50272 1.80667 1.51096C1.78284 1.51508 1.76411 1.5184 1.75058 1.52083C1.74382 1.52204 1.73835 1.52304 1.73419 1.5238C1.73211 1.52418 1.73036 1.5245 1.72893 1.52476C1.72822 1.52489 1.7274 1.52504 1.72704 1.52511C1.72631 1.52525 1.72565 1.52537 2 3.00007ZM42.6398 14.229C52.2005 20.9215 56.4459 31.2449 58.2815 40.056C59.1966 44.4482 59.5023 48.4185 59.5787 51.2899C59.6168 52.7242 59.5976 53.8803 59.5693 54.673C59.5552 55.0693 59.5387 55.3744 59.5261 55.5778C59.5198 55.6794 59.5144 55.7556 59.5107 55.8049C59.5089 55.8296 59.5075 55.8476 59.5066 55.8587C59.5061 55.8642 59.5058 55.8681 59.5056 55.8701C59.5055 55.8712 59.5055 55.8718 59.5055 55.872C59.5055 55.8721 59.5055 55.8719 59.5055 55.8719C59.5055 55.8716 59.5055 55.8712 61 56C62.4945 56.1288 62.4945 56.1282 62.4946 56.1274C62.4946 56.127 62.4947 56.1262 62.4948 56.1254C62.4949 56.1238 62.4951 56.1218 62.4953 56.1193C62.4957 56.1143 62.4962 56.1076 62.4969 56.0992C62.4983 56.0823 62.5001 56.0584 62.5024 56.0278C62.507 55.9666 62.5132 55.8782 62.5203 55.764C62.5345 55.5357 62.5523 55.2042 62.5674 54.7801C62.5977 53.9322 62.6176 52.7134 62.5776 51.2101C62.4977 48.2066 62.1784 44.0519 61.2185 39.4441C59.3041 30.2554 54.7995 19.0788 44.3602 11.7713L42.6398 14.229Z" fill="#333333"/>
</svg>
