<svg width="192" height="74" viewBox="0 0 192 74" fill="none" xmlns="http://www.w3.org/2000/svg">
<path d="M5.39624 32C2.63482 32 0.39624 34.2386 0.39624 37C0.39624 39.7614 2.63482 42 5.39624 42V32ZM190.103 40.5355C192.056 38.5829 192.056 35.4171 190.103 33.4645L158.283 1.64466C156.331 -0.307961 153.165 -0.307961 151.212 1.64466C149.26 3.59728 149.26 6.76311 151.212 8.71573L179.497 37L151.212 65.2843C149.26 67.2369 149.26 70.4027 151.212 72.3553C153.165 74.308 156.331 74.308 158.283 72.3553L190.103 40.5355ZM5.39624 42H186.568V32H5.39624V42Z" fill="#333333"/>
</svg>
