<svg width="85" height="85" viewBox="0 0 85 85" fill="none" xmlns="http://www.w3.org/2000/svg">
<path d="M67.1128 40.6563C67.1128 36.1513 65.4925 33.0329 64.1059 30.6051L63.6809 29.9144C61.9969 27.2051 60.5253 24.8251 60.5253 22.0519C60.5253 18.7051 63.0647 15.5813 66.6453 15.5813C66.7516 15.5813 66.8525 15.5919 66.9534 15.5973L67.1181 15.6132C60.404 9.44612 51.6166 6.02899 42.5 6.04007C36.4579 6.03696 30.51 7.53725 25.1923 10.4057C19.8745 13.2742 15.354 17.4207 12.0381 22.4716C12.8881 22.4982 13.7009 22.5194 14.3863 22.5194C18.1953 22.5194 24.0975 22.0573 24.0975 22.0573C26.0631 21.9404 26.2969 24.8251 24.3313 25.0588C24.3313 25.0588 22.3603 25.2926 20.1609 25.4041L33.4422 64.8972L41.4109 40.9591L35.7266 25.3988C33.7663 25.2819 31.9069 25.0535 31.9069 25.0535C29.9413 24.9366 30.175 21.9298 32.1353 22.0466C32.1353 22.0466 38.1597 22.5088 41.7403 22.5088C45.5547 22.5088 51.4622 22.0466 51.4622 22.0466C53.4278 21.9298 53.6562 24.8198 51.6906 25.0535C51.6906 25.0535 49.7144 25.2819 47.5203 25.3988L60.6953 64.5891L64.3291 52.4394L64.6159 51.5204C66.0503 46.9516 67.1075 43.5782 67.1075 40.651L67.1128 40.6563ZM6.04031 42.4998C6.03995 49.3462 7.96704 56.0545 11.6011 61.8569C15.2351 67.6593 20.4292 72.3214 26.5891 75.3097L9.19063 27.6566C7.10723 32.3274 6.0337 37.3854 6.04031 42.4998Z" fill="#0065A9"/>
<path d="M32.199 77.4724L43.1428 45.6877L54.3468 76.3939C54.4212 76.5692 54.5062 76.7339 54.6072 76.8933C47.3845 79.4378 39.5435 79.6405 32.199 77.4724ZM74.4865 25.0061C74.6459 26.1695 74.7362 27.4127 74.7362 28.7567C74.7362 32.4542 74.0456 36.6139 71.9631 41.8149L60.8281 74.0086C69.045 69.2346 75.0721 61.4397 77.6245 52.2859C80.177 43.132 79.0529 33.3431 74.4919 25.0061H74.4865Z" fill="#0065A9"/>
<path fill-rule="evenodd" clip-rule="evenodd" d="M0 42.5C0 19.0666 19.0666 0 42.5 0C65.9281 0 85 19.0666 85 42.5C85 65.9334 65.9281 85 42.5 85C19.0666 85 0 65.9334 0 42.5ZM1.94969 42.5C1.94969 64.8603 20.1397 83.0503 42.5 83.0503C64.855 83.0503 83.045 64.8603 83.045 42.5C83.045 20.1344 64.855 1.94969 42.5 1.94969C20.1344 1.94969 1.94969 20.1344 1.94969 42.5Z" fill="#0065A9"/>
</svg>
