<svg width="85" height="87" viewBox="0 0 85 87" fill="none" xmlns="http://www.w3.org/2000/svg">
<g clip-path="url(#clip0_6:145)">
<path fill-rule="evenodd" clip-rule="evenodd" d="M85 86.0119H0V0H85V86.0119ZM67.4704 36.4566V29.7857C66.3847 29.2965 60.1672 27.4968 55.2553 29.3934C48.1797 32.1253 48.4339 40.3552 51.1189 43.5852C54.5977 47.7702 63.2516 49.3305 61.8355 53.4383C61.1022 55.5654 57.6788 55.9356 54.6606 55.2215C51.85 54.5566 49.4062 52.872 49.4062 52.872V59.9352C49.4062 59.9352 51.8218 61.2979 54.7865 61.6222C58.5871 62.0376 63.3511 61.2531 65.7377 59.1065C69.986 55.2852 70.6385 46.82 62.5876 42.8892C55.888 39.6184 55.9982 38.6849 56.0452 37.0071C56.1083 34.7601 60.7707 33.3768 67.4704 36.4566ZM31.3421 17.7358C36.9164 17.932 45.1084 20.5316 45.1084 31.6169C45.1084 42.7022 35.0854 46.3398 25.9398 45.5472V61.2432H19.1267V17.8827C19.1267 17.8827 25.7675 17.5395 31.3419 17.7358H31.3421ZM33.1113 38.6802C36.0491 37.5954 37.9586 35.2635 37.9586 31.6413C37.9586 27.8008 36.0154 25.2001 33.0434 24.4655C29.825 23.6697 25.9398 24.1388 25.9398 24.1388V39.2654C25.9398 39.2654 31.3179 39.3424 33.1113 38.6802Z" fill="#19386C"/>
</g>
<defs>
<clipPath id="clip0_6:145">
<rect width="85" height="86.0119" fill="white"/>
</clipPath>
</defs>
</svg>
