<svg width="87" height="85" viewBox="0 0 87 85" fill="none" xmlns="http://www.w3.org/2000/svg">
<path d="M58 56.6666C66.0081 56.6666 72.5 50.324 72.5 42.4999C72.5 34.6759 66.0081 28.3333 58 28.3333C49.9919 28.3333 43.5 34.6759 43.5 42.4999C43.5 50.324 49.9919 56.6666 58 56.6666Z" fill="#19BCFE"/>
<path fill-rule="evenodd" clip-rule="evenodd" d="M29 85.0001C32.8456 85.0001 36.5338 83.5075 39.253 80.8508C41.9723 78.194 43.5 74.5906 43.5 70.8334V56.6667H29C25.1544 56.6667 21.4662 58.1593 18.747 60.8161C16.0277 63.4728 14.5 67.0762 14.5 70.8334C14.5 74.5906 16.0277 78.194 18.747 80.8508C21.4662 83.5075 25.1544 85.0001 29 85.0001Z" fill="#09CF83"/>
<path fill-rule="evenodd" clip-rule="evenodd" d="M29 56.6666H43.5V28.3333H29C25.1544 28.3333 21.4662 29.8258 18.747 32.4826C16.0277 35.1393 14.5 38.7427 14.5 42.4999C14.5 46.2572 16.0277 49.8605 18.747 52.5173C21.4662 55.174 25.1544 56.6666 29 56.6666Z" fill="#A259FF"/>
<path fill-rule="evenodd" clip-rule="evenodd" d="M29 28.3333H43.5V0H29C25.1544 0 21.4662 1.49256 18.747 4.14932C16.0277 6.80609 14.5 10.4094 14.5 14.1667C14.5 17.9239 16.0277 21.5272 18.747 24.184C21.4662 26.8408 25.1544 28.3333 29 28.3333Z" fill="#F24E1E"/>
<path fill-rule="evenodd" clip-rule="evenodd" d="M58 28.3333H43.5V0H58C61.8456 0 65.5338 1.49256 68.253 4.14932C70.9723 6.80609 72.5 10.4094 72.5 14.1667C72.5 17.9239 70.9723 21.5272 68.253 24.184C65.5338 26.8408 61.8456 28.3333 58 28.3333Z" fill="#FF7262"/>
</svg>
