<svg width="223" height="35" viewBox="0 0 223 35" fill="none" xmlns="http://www.w3.org/2000/svg">
<path fill-rule="evenodd" clip-rule="evenodd" d="M168.124 0.14013C136.772 0.538013 127.808 0.796844 110.413 1.80721C92.3857 2.85427 79.4847 3.90385 59.0149 5.98875C54.2695 6.47207 49.1885 6.93076 43.2318 7.41341C21.3505 9.18638 17.0925 9.65882 10.0188 11.0979C6.51401 11.8111 3.48298 12.3046 1.78417 12.4391C0.273802 12.5586 0 12.6338 0 12.9292C0 13.1902 2.41563 13.4188 3.73688 13.2828C4.21037 13.2342 5.49319 13.1151 6.58771 13.0184C7.68223 12.9216 10.0909 12.6618 11.9402 12.441C16.2951 11.9208 18.386 11.7568 25.8705 11.3482C38.4526 10.6613 47.9574 10.0012 59.6325 9.0036C63.9351 8.63588 69.6478 8.1477 72.3275 7.91869C92.6511 6.18158 117.477 4.63259 132.646 4.1553C151.055 3.57582 208.203 3.06352 207.238 3.48636C206.856 3.65406 200.316 4.90131 196.396 5.55434C192.795 6.15427 186.779 7.01955 179.378 8.00195C175.868 8.46801 171.05 9.11301 168.673 9.43533C159.74 10.6464 156.798 11.022 151.723 11.5998C128.343 14.2613 112.9 16.5806 91.4044 20.6579C78.6277 23.0814 68.1553 25.8636 56.4684 29.9394C49.8239 32.2567 49.1765 32.6683 49.8305 34.1602C50.2561 35.1308 53.6087 35.2566 60.3707 34.5555C72.7283 33.2744 84.3409 32.2808 95.5904 31.542C102.647 31.0786 103.581 31.0009 110.756 30.2815C113.435 30.013 118.067 29.6203 121.049 29.4092L126.47 29.0254L119.265 28.8741C108.346 28.6448 96.6341 28.6587 92.7769 28.9056C80.0066 29.7231 73.0607 30.3524 61.7151 31.7192C59.0109 32.0451 56.7295 32.2837 56.6452 32.2495C55.8327 31.9188 74.0185 26.922 82.6941 25.0923C102.278 20.9615 122.446 17.8795 153.439 14.2806C156.269 13.9519 161.951 13.2329 166.065 12.6829C170.179 12.1327 176.664 11.2666 180.476 10.7578C195.148 8.79989 199.519 8.07063 213.62 5.2285C222.651 3.40812 222.699 3.39255 222.946 2.19538C223.216 0.879103 222.493 0.281865 220.42 0.111152C218.451 -0.0511838 181.585 -0.0307496 168.124 0.14013ZM127.055 28.8925C127.226 28.9326 127.473 28.9311 127.604 28.8892C127.735 28.8473 127.596 28.8145 127.294 28.8163C126.992 28.8181 126.884 28.8525 127.055 28.8925Z" fill="#FEBC39"/>
</svg>
