<svg width="198" height="45" viewBox="0 0 198 45" fill="none" xmlns="http://www.w3.org/2000/svg">
<path d="M2 5.97524C63 0.764356 127.458 1.40091 191.567 3.77533C193.025 3.82931 194.5 3.81927 195.93 4.10532C196.294 4.1781 195.237 4.4047 194.867 4.43531C185.766 5.18848 176.63 5.43517 167.514 5.97525C155.454 6.68981 136.197 7.88895 123.883 8.83516C118.462 9.25165 112.689 8.56324 107.676 10.6684C106.477 11.1722 109.929 12.0621 111.196 12.355C114.117 13.03 120.053 13.8678 122.856 14.335C124.935 14.6815 137.068 15.7484 127.549 17.5615C120.181 18.965 109.923 18.8981 103.423 23.1347C100.65 24.9425 106.981 40.9553 107.676 42.7643" stroke="#FEBC39" stroke-width="3" stroke-linecap="round"/>
</svg>
