<svg width="12" height="16" viewBox="0 0 12 16" fill="none" xmlns="http://www.w3.org/2000/svg">
<path d="M10.2 0H1.8C0.80625 0 0 0.671875 0 1.5V14.5C0 15.3281 0.80625 16 1.8 16H10.2C11.1938 16 12 15.3281 12 14.5V1.5C12 0.671875 11.1938 0 10.2 0ZM6 15C5.33625 15 4.8 14.5531 4.8 14C4.8 13.4469 5.33625 13 6 13C6.66375 13 7.2 13.4469 7.2 14C7.2 14.5531 6.66375 15 6 15ZM10.2 11.625C10.2 11.8312 9.9975 12 9.75 12H2.25C2.0025 12 1.8 11.8312 1.8 11.625V1.875C1.8 1.66875 2.0025 1.5 2.25 1.5H9.75C9.9975 1.5 10.2 1.66875 10.2 1.875V11.625Z" fill="#4A4A4A"/>
</svg>
