<svg width="85" height="85" viewBox="0 0 85 85" fill="none" xmlns="http://www.w3.org/2000/svg">
<path d="M0 74.04C0 80.0936 4.90709 85 10.96 85H74.0396C80.0936 85 85 80.0929 85 74.04V10.9604C85 4.90643 80.0929 0 74.04 0H10.9604C4.90643 0 0 4.90709 0 10.96V74.0396V74.04Z" fill="#563D7C"/>
<path d="M35.2478 37.5986V25.5614H45.8432C46.8526 25.5614 47.8254 25.6454 48.7624 25.8138C49.6994 25.9818 50.5285 26.2819 51.2494 26.7146C51.9699 27.1472 52.5466 27.7479 52.9792 28.5165C53.4115 29.2855 53.628 30.2706 53.628 31.4716C53.628 33.6341 52.9792 35.196 51.6817 36.1569C50.3844 37.1181 48.7266 37.5986 46.7082 37.5986H35.2478ZM23.9312 16.7676V68.2324H48.8707C51.1773 68.2324 53.4238 67.9442 55.6103 67.3675C57.7967 66.7907 59.7427 65.9019 61.4487 64.7006C63.1543 63.4993 64.512 61.9494 65.5211 60.0515C66.5304 58.1533 67.0348 55.9068 67.0348 53.3119C67.0348 50.0922 66.2539 47.3413 64.6923 45.059C63.1304 42.7763 60.7637 41.1785 57.5922 40.2654C59.8988 39.1604 61.6409 37.7427 62.8183 36.0128C63.9954 34.2829 64.5841 32.1207 64.5841 29.5255C64.5841 27.123 64.1876 25.1049 63.3947 23.471C62.6018 21.8374 61.4846 20.5278 60.0429 19.5427C58.6015 18.5576 56.8716 17.8487 54.8532 17.4164C52.8351 16.9837 50.6006 16.7676 48.1498 16.7676H23.9312ZM35.2478 59.4386V45.311H47.5731C50.0238 45.311 51.9941 45.8754 53.4839 47.005C54.9734 48.1342 55.7185 50.0202 55.7185 52.6631C55.7185 54.0089 55.4901 55.1139 55.0335 55.9788C54.577 56.8438 53.9644 57.5287 53.1954 58.0331C52.4267 58.5378 51.5376 58.898 50.5285 59.1145C49.5191 59.3303 48.4623 59.4386 47.357 59.4386H35.2478Z" fill="white"/>
</svg>
