<svg width="85" height="85" viewBox="0 0 85 85" fill="none" xmlns="http://www.w3.org/2000/svg">
<path d="M77.0578 13.3608L61.7419 5.98702C60.877 5.56999 59.9037 5.43237 58.9571 5.59323C58.0104 5.7541 57.1372 6.2055 56.4586 6.88484L6.32191 52.5936C5.7136 53.1456 5.34947 53.9166 5.30962 54.737C5.26977 55.5574 5.55746 56.3601 6.10941 56.9684C6.17581 57.0402 6.24222 57.1092 6.31394 57.173L10.4072 60.8917C10.9421 61.3785 11.6306 61.6626 12.3531 61.6946C13.0756 61.7267 13.7865 61.5046 14.3624 61.067L74.7522 15.2733C75.2084 14.9271 75.7521 14.7152 76.3221 14.6613C76.8922 14.6074 77.466 14.7137 77.9789 14.9683C78.4918 15.2228 78.9235 15.6154 79.2254 16.102C79.5272 16.5886 79.6873 17.1497 79.6875 17.7223V17.5444C79.6875 16.6702 79.4406 15.8138 78.9754 15.0737C78.5102 14.3336 77.8455 13.7398 77.0578 13.3608Z" fill="#0065A9"/>
<path d="M77.0578 71.639L61.7419 79.0154C60.8767 79.4313 59.9037 79.5683 58.9574 79.4074C58.011 79.2466 57.1379 78.7959 56.4586 78.1176L6.32191 32.4062C5.7136 31.8542 5.34947 31.0832 5.30962 30.2628C5.26977 29.4424 5.55746 28.6397 6.10941 28.0314C6.17581 27.9596 6.24222 27.8906 6.31394 27.8268L10.4072 24.1081C10.9426 23.6192 11.6327 23.3339 12.357 23.3019C13.0813 23.2698 13.7939 23.4931 14.3703 23.9328L74.7522 69.7265C75.2084 70.0727 75.7521 70.2846 76.3221 70.3385C76.8922 70.3924 77.466 70.2861 77.9789 70.0315C78.4918 69.777 78.9235 69.3844 79.2254 68.8978C79.5272 68.4112 79.6873 67.8501 79.6875 67.2775V67.4687C79.6847 68.3406 79.4365 69.194 78.9715 69.9315C78.5065 70.6689 77.8433 71.2607 77.0578 71.639Z" fill="#007ACC"/>
<path d="M61.7419 79.0155C60.8767 79.4314 59.9037 79.5683 58.9574 79.4075C58.011 79.2467 57.1379 78.796 56.4586 78.1177C56.8401 78.4942 57.3242 78.7497 57.8502 78.8522C58.3762 78.9548 58.9208 78.8998 59.4158 78.6942C59.9107 78.4885 60.3339 78.1414 60.6324 77.6963C60.9309 77.2512 61.0914 76.7278 61.0938 76.1919V8.80816C61.0942 8.2697 60.9348 7.74323 60.6358 7.29544C60.3368 6.84764 59.9116 6.49867 59.4141 6.29272C58.9166 6.08678 58.3692 6.03313 57.8411 6.13857C57.3131 6.24401 56.8283 6.5038 56.448 6.88503C57.1267 6.20594 57.9997 5.75452 58.9462 5.5932C59.8927 5.43188 60.8659 5.56864 61.7313 5.98456L77.0446 13.3477C77.8347 13.7249 78.5022 14.3178 78.9698 15.0581C79.4375 15.7983 79.6863 16.6557 79.6875 17.5313V67.4688C79.6877 68.3437 79.4408 69.2008 78.975 69.9415C78.5093 70.6821 77.8438 71.2761 77.0552 71.655L61.7419 79.0155Z" fill="#1F9CF0"/>
</svg>
