<svg width="320" height="120" viewBox="0 0 320 120" fill="none" xmlns="http://www.w3.org/2000/svg">
<path d="M300 89.4146C300 85.0932 300 82.9326 300.331 81.3317C300.784 79.1375 300.747 79.2401 301.772 77.2479C302.52 75.7943 305.397 72.2279 311.15 65.0951C316.686 58.2325 320 49.5033 320 40C320 17.9086 302.091 0 280 0C270.497 0 261.767 3.31408 254.905 8.84957C247.772 14.6031 244.206 17.4799 242.752 18.2277C240.76 19.2526 240.862 19.2164 238.668 19.6694C237.067 20 234.907 20 230.585 20H25.6C16.6392 20 12.1587 20 8.73615 21.7439C5.72556 23.2779 3.27787 25.7256 1.7439 28.7362C0 32.1587 0 36.6392 0 45.6V94.4C0 103.361 0 107.841 1.7439 111.264C3.27787 114.274 5.72556 116.722 8.73615 118.256C12.1587 120 16.6392 120 25.6 120H274.4C283.361 120 287.841 120 291.264 118.256C294.274 116.722 296.722 114.274 298.256 111.264C300 107.841 300 103.361 300 94.4V89.4146Z" fill="url(#paint0_linear_714_497)"/>
<defs>
<linearGradient id="paint0_linear_714_497" x1="0" y1="60" x2="320" y2="60" gradientUnits="userSpaceOnUse">
<stop stop-color="#6F90B4"/>
<stop offset="1" stop-color="#0F3155"/>
</linearGradient>
</defs>
</svg>
