<svg width="320" height="120" viewBox="0 0 320 120" fill="none" xmlns="http://www.w3.org/2000/svg">
<path opacity="0.4" d="M318 40C318 49.03 314.853 57.3196 309.594 63.8394L309.582 63.8538C306.716 67.407 304.549 70.0929 303.007 72.0715C301.507 73.9949 300.471 75.4058 299.994 76.333L299.886 76.543C299.462 77.3655 299.166 77.9405 298.951 78.5483C298.737 79.156 298.606 79.7895 298.42 80.6957C298.404 80.7709 298.388 80.8481 298.372 80.9272C298 82.7306 298 85.0744 298 89.0721V89.4146V94.4C298 98.9134 297.998 102.178 297.789 104.746C297.581 107.29 297.178 108.974 296.474 110.356C295.132 112.99 292.99 115.132 290.356 116.474C288.974 117.178 287.29 117.581 284.746 117.789C282.178 117.998 278.913 118 274.4 118H25.6C21.0866 118 17.8218 117.998 15.2541 117.789C12.7097 117.581 11.0265 117.178 9.64413 116.474C7.00986 115.132 4.86814 112.99 3.52591 110.356C2.82156 108.974 2.41923 107.29 2.21134 104.746C2.00156 102.178 2 98.9134 2 94.4V45.6C2 41.0866 2.00156 37.8218 2.21134 35.2541C2.41923 32.7097 2.82156 31.0265 3.52591 29.6441C4.86814 27.0099 7.00986 24.8681 9.64413 23.5259C11.0265 22.8216 12.7097 22.4192 15.2541 22.2113C17.8218 22.0016 21.0866 22 25.6 22H230.585L230.928 22C234.926 22.0003 237.269 22.0005 239.073 21.6281C239.152 21.6117 239.229 21.5958 239.305 21.5803C240.211 21.3938 240.844 21.2634 241.452 21.0489C242.059 20.8344 242.634 20.5382 243.457 20.1145C243.525 20.0793 243.595 20.0432 243.667 20.0061C244.594 19.5292 246.005 18.4926 247.928 16.9931C249.907 15.4508 252.592 13.2846 256.145 10.419L256.161 10.4063C262.68 5.1472 270.97 2 280 2C300.987 2 318 19.0132 318 40Z" stroke="white" stroke-width="4"/>
</svg>
