<svg width="10" height="10" viewBox="0 0 10 10" fill="none" xmlns="http://www.w3.org/2000/svg">
<path d="M5 0C3.67392 0 2.40215 0.526784 1.46447 1.46447C0.526784 2.40215 0 3.67392 0 5C0 6.32608 0.526784 7.59785 1.46447 8.53553C2.40215 9.47322 3.67392 10 5 10C6.32608 10 7.59785 9.47322 8.53553 8.53553C9.47322 7.59785 10 6.32608 10 5C10 3.67392 9.47322 2.40215 8.53553 1.46447C7.59785 0.526784 6.32608 0 5 0ZM6.92222 6.63889C6.92222 7.45556 6.47778 8.47222 4.66667 9.25C4.83333 6.93333 3.26667 7.2 2.88889 6.47222C2.92329 6.17114 3.03293 5.88356 3.20769 5.63598C3.38245 5.38841 3.61671 5.1888 3.88889 5.05556C3.02676 4.90768 2.22274 4.52298 1.56667 3.94444C1.59444 4.20556 1.72167 4.44667 1.92222 4.61667C1.48773 4.45289 1.11231 4.16262 0.844444 3.78333C1.10932 2.90911 1.63907 2.13868 2.36054 1.57842C3.08202 1.01815 3.95964 0.695692 4.87222 0.655556C4.40556 1.42222 4.03889 2.95 4.87222 3.75C4.01667 3.88889 3.47778 2.77778 3.00556 3.21667C2.37778 3.80556 3.18889 4.61111 4.90556 4.92778C6.73333 5.25556 6.93889 5.80556 6.92222 6.63889ZM7.66667 4.41667C7.48889 3.8 8.01111 3.17778 8.60556 2.67222C8.97679 3.20734 9.21312 3.82431 9.29437 4.4705C9.37563 5.1167 9.29942 5.77296 9.07222 6.38333C8.64444 5.33333 7.86667 5.09444 7.66667 4.4V4.41667Z" fill="#E5E5E5"/>
</svg>
