<svg width="10" height="10" viewBox="0 0 10 10" fill="none" xmlns="http://www.w3.org/2000/svg">
<path d="M8.54271 1.45503C8.08201 0.99199 7.53326 0.624862 6.92846 0.375054C6.32367 0.125247 5.67493 -0.00224005 5.0201 2.97847e-05C2.27638 2.97847e-05 0.0402011 2.22502 0.0402011 4.95501C0.0402011 5.83001 0.271357 6.68001 0.703518 7.43001L0 10L2.63819 9.31C3.36683 9.705 4.18593 9.915 5.0201 9.915C7.76382 9.915 10 7.69001 10 4.96001C10 3.63502 9.48241 2.39002 8.54271 1.45503ZM5.0201 9.075C4.27638 9.075 3.54774 8.875 2.90955 8.5L2.75879 8.41L1.19095 8.82L1.60804 7.30001L1.50754 7.14501C1.09434 6.48849 0.874945 5.72963 0.874372 4.95501C0.874372 2.68502 2.73367 0.835027 5.01507 0.835027C6.1206 0.835027 7.1608 1.26503 7.9397 2.04502C8.32537 2.427 8.631 2.88135 8.83889 3.38173C9.04678 3.88211 9.15278 4.41857 9.15075 4.96001C9.1608 7.23001 7.30151 9.075 5.0201 9.075ZM7.29146 5.99501C7.16583 5.93501 6.55276 5.63501 6.44221 5.59001C6.32663 5.55001 6.24623 5.53001 6.1608 5.65001C6.07538 5.77501 5.8392 6.05501 5.76884 6.13501C5.69849 6.22001 5.62311 6.23001 5.49749 6.16501C5.37186 6.10501 4.96985 5.97001 4.49749 5.55001C4.12563 5.22001 3.8794 4.81502 3.80402 4.69002C3.73367 4.56502 3.79397 4.50002 3.8593 4.43502C3.91457 4.38002 3.98492 4.29002 4.04523 4.22002C4.10553 4.15002 4.13065 4.09502 4.17085 4.01502C4.21105 3.93002 4.19095 3.86002 4.1608 3.80002C4.13065 3.74002 3.8794 3.13002 3.77889 2.88002C3.67839 2.64002 3.57286 2.67002 3.49749 2.66502H3.25628C3.17085 2.66502 3.0402 2.69502 2.92462 2.82002C2.81407 2.94502 2.49246 3.24502 2.49246 3.85502C2.49246 4.46502 2.9397 5.05501 3 5.13501C3.0603 5.22001 3.8794 6.47001 5.12563 7.00501C5.42211 7.13501 5.65327 7.21001 5.83417 7.26501C6.13065 7.36001 6.40201 7.34501 6.61809 7.31501C6.8593 7.28001 7.35678 7.01501 7.45729 6.72501C7.56281 6.43501 7.56281 6.19001 7.52764 6.13501C7.49246 6.08001 7.41708 6.05501 7.29146 5.99501Z" fill="#DFE4E9"/>
</svg>
